<mxfile host="Electron" modified="2024-09-16T11:48:36.725Z" agent="Mozilla/5.0 (Windows NT 10.0; Win64; x64) AppleWebKit/537.36 (KHTML, like Gecko) draw.io/21.7.5 Chrome/114.0.5735.289 Electron/25.8.1 Safari/537.36" etag="e5vcnLIShoXifdkDDpIr" version="21.7.5" type="device">
  <diagram name="PÃ¡gina-1" id="v0AngXhe5o8vwyZcoma5">
    <mxGraphModel dx="757" dy="566" grid="1" gridSize="10" guides="1" tooltips="1" connect="1" arrows="1" fold="1" page="1" pageScale="1" pageWidth="827" pageHeight="1169" math="0" shadow="0">
      <root>
        <mxCell id="0" />
        <mxCell id="1" parent="0" />
        <mxCell id="gPobE8zA5E82etMXBODU-23" style="edgeStyle=orthogonalEdgeStyle;rounded=0;orthogonalLoop=1;jettySize=auto;html=1;entryX=0.5;entryY=0;entryDx=0;entryDy=0;" edge="1" parent="1" source="gPobE8zA5E82etMXBODU-1" target="gPobE8zA5E82etMXBODU-2">
          <mxGeometry relative="1" as="geometry" />
        </mxCell>
        <mxCell id="gPobE8zA5E82etMXBODU-1" value="Activ1T1" style="rounded=1;whiteSpace=wrap;html=1;" vertex="1" parent="1">
          <mxGeometry x="360" y="80" width="120" height="60" as="geometry" />
        </mxCell>
        <mxCell id="gPobE8zA5E82etMXBODU-14" style="edgeStyle=orthogonalEdgeStyle;rounded=0;orthogonalLoop=1;jettySize=auto;html=1;entryX=0.5;entryY=0;entryDx=0;entryDy=0;" edge="1" parent="1" source="gPobE8zA5E82etMXBODU-2" target="gPobE8zA5E82etMXBODU-3">
          <mxGeometry relative="1" as="geometry" />
        </mxCell>
        <mxCell id="gPobE8zA5E82etMXBODU-2" value="Leer num1" style="shape=parallelogram;perimeter=parallelogramPerimeter;whiteSpace=wrap;html=1;fixedSize=1;" vertex="1" parent="1">
          <mxGeometry x="360" y="190" width="120" height="60" as="geometry" />
        </mxCell>
        <mxCell id="gPobE8zA5E82etMXBODU-15" style="edgeStyle=orthogonalEdgeStyle;rounded=0;orthogonalLoop=1;jettySize=auto;html=1;entryX=0.5;entryY=0;entryDx=0;entryDy=0;" edge="1" parent="1" source="gPobE8zA5E82etMXBODU-3" target="gPobE8zA5E82etMXBODU-5">
          <mxGeometry relative="1" as="geometry" />
        </mxCell>
        <mxCell id="gPobE8zA5E82etMXBODU-3" value="Leer num2" style="shape=parallelogram;perimeter=parallelogramPerimeter;whiteSpace=wrap;html=1;fixedSize=1;" vertex="1" parent="1">
          <mxGeometry x="360" y="300" width="120" height="60" as="geometry" />
        </mxCell>
        <mxCell id="gPobE8zA5E82etMXBODU-17" style="edgeStyle=orthogonalEdgeStyle;rounded=0;orthogonalLoop=1;jettySize=auto;html=1;" edge="1" parent="1" source="gPobE8zA5E82etMXBODU-5">
          <mxGeometry relative="1" as="geometry">
            <mxPoint x="420" y="520" as="targetPoint" />
          </mxGeometry>
        </mxCell>
        <mxCell id="gPobE8zA5E82etMXBODU-5" value="Crear numChange" style="rounded=0;whiteSpace=wrap;html=1;" vertex="1" parent="1">
          <mxGeometry x="360" y="410" width="120" height="60" as="geometry" />
        </mxCell>
        <mxCell id="gPobE8zA5E82etMXBODU-18" style="edgeStyle=orthogonalEdgeStyle;rounded=0;orthogonalLoop=1;jettySize=auto;html=1;entryX=0.5;entryY=0;entryDx=0;entryDy=0;" edge="1" parent="1" source="gPobE8zA5E82etMXBODU-6" target="gPobE8zA5E82etMXBODU-8">
          <mxGeometry relative="1" as="geometry" />
        </mxCell>
        <mxCell id="gPobE8zA5E82etMXBODU-6" value="numChange = Num1" style="rounded=0;whiteSpace=wrap;html=1;" vertex="1" parent="1">
          <mxGeometry x="360" y="525" width="120" height="60" as="geometry" />
        </mxCell>
        <mxCell id="gPobE8zA5E82etMXBODU-20" style="edgeStyle=orthogonalEdgeStyle;rounded=0;orthogonalLoop=1;jettySize=auto;html=1;entryX=0.5;entryY=0;entryDx=0;entryDy=0;" edge="1" parent="1" source="gPobE8zA5E82etMXBODU-7" target="gPobE8zA5E82etMXBODU-11">
          <mxGeometry relative="1" as="geometry" />
        </mxCell>
        <mxCell id="gPobE8zA5E82etMXBODU-7" value="Num2 = numChange" style="rounded=0;whiteSpace=wrap;html=1;" vertex="1" parent="1">
          <mxGeometry x="360" y="710" width="120" height="60" as="geometry" />
        </mxCell>
        <mxCell id="gPobE8zA5E82etMXBODU-19" style="edgeStyle=orthogonalEdgeStyle;rounded=0;orthogonalLoop=1;jettySize=auto;html=1;entryX=0.5;entryY=0;entryDx=0;entryDy=0;" edge="1" parent="1" source="gPobE8zA5E82etMXBODU-8" target="gPobE8zA5E82etMXBODU-7">
          <mxGeometry relative="1" as="geometry" />
        </mxCell>
        <mxCell id="gPobE8zA5E82etMXBODU-8" value="Num1 = Num2" style="rounded=0;whiteSpace=wrap;html=1;" vertex="1" parent="1">
          <mxGeometry x="360" y="620" width="120" height="60" as="geometry" />
        </mxCell>
        <mxCell id="gPobE8zA5E82etMXBODU-9" value="Fin Activ1T1" style="rounded=1;whiteSpace=wrap;html=1;" vertex="1" parent="1">
          <mxGeometry x="360" y="990" width="120" height="60" as="geometry" />
        </mxCell>
        <mxCell id="gPobE8zA5E82etMXBODU-21" style="edgeStyle=orthogonalEdgeStyle;rounded=0;orthogonalLoop=1;jettySize=auto;html=1;entryX=0.5;entryY=0;entryDx=0;entryDy=0;" edge="1" parent="1" source="gPobE8zA5E82etMXBODU-11" target="gPobE8zA5E82etMXBODU-12">
          <mxGeometry relative="1" as="geometry" />
        </mxCell>
        <mxCell id="gPobE8zA5E82etMXBODU-11" value="Escribir num1" style="shape=parallelogram;perimeter=parallelogramPerimeter;whiteSpace=wrap;html=1;fixedSize=1;" vertex="1" parent="1">
          <mxGeometry x="360" y="800" width="120" height="60" as="geometry" />
        </mxCell>
        <mxCell id="gPobE8zA5E82etMXBODU-22" style="edgeStyle=orthogonalEdgeStyle;rounded=0;orthogonalLoop=1;jettySize=auto;html=1;entryX=0.5;entryY=0;entryDx=0;entryDy=0;" edge="1" parent="1" source="gPobE8zA5E82etMXBODU-12" target="gPobE8zA5E82etMXBODU-9">
          <mxGeometry relative="1" as="geometry" />
        </mxCell>
        <mxCell id="gPobE8zA5E82etMXBODU-12" value="Escribir num2" style="shape=parallelogram;perimeter=parallelogramPerimeter;whiteSpace=wrap;html=1;fixedSize=1;" vertex="1" parent="1">
          <mxGeometry x="360" y="890" width="120" height="60" as="geometry" />
        </mxCell>
      </root>
    </mxGraphModel>
  </diagram>
</mxfile>
